<?xml version="1.0" encoding="UTF-8" standalone="no"?>
<!-- Created with Inkscape (http://www.inkscape.org/) -->

<svg
   width="11.291228mm"
   height="37.986675mm"
   viewBox="0 0 11.291228 37.986675"
   version="1.1"
   id="svg1"
   xml:space="preserve"
   xmlns="http://www.w3.org/2000/svg"
   xmlns:svg="http://www.w3.org/2000/svg"><defs
     id="defs1" /><g
     id="layer1"
     transform="translate(140.82866,-54.605793)"><g
       id="g17"><path
         style="fill:#ffffff;stroke-width:0.264583"
         d="m -129.53743,54.605792 c 0,0 -1.01948,1.083196 -1.80002,1.258419 -1.43364,0.302658 -2.15046,0.446024 -2.15046,0.446024 -1.4537,0.41719 -2.48033,1.450151 -3.41554,2.560708 -0.99495,1.32603 -1.65397,2.824399 -1.81539,4.476373 0.20274,0.191484 0.56897,0.163324 0.56897,0.163324 l -0.21401,1.008107 c -0.48986,2.458616 -0.70091,4.598827 -0.95389,7.418145 l -0.0186,2.464826 -1.49228,0.02913 0.11649,-4.940119 c 0.14956,-2.538917 0.56743,-4.957025 1.40218,-7.404948 0.63717,-2.038956 1.3967,-3.198905 1.3967,-3.198905 1.18217,-1.479565 1.65058,-2.031391 3.30768,-2.751086 1.12045,-0.403384 2.17818,-0.737699 3.3286,-1.038999 1.21063,-0.382304 1.73958,-0.491 1.73958,-0.491 z"
         id="path17" /><path
         style="fill:#ffffff;stroke-width:0.264583"
         d="m -129.53898,92.592468 c 0,0 -1.01948,-1.083196 -1.80002,-1.258419 -1.43364,-0.302658 -2.15046,-0.446024 -2.15046,-0.446024 -1.4537,-0.41719 -2.48033,-1.450151 -3.41554,-2.560708 -0.99495,-1.32603 -1.65397,-2.824399 -1.81539,-4.476373 0.20274,-0.191484 0.56897,-0.163324 0.56897,-0.163324 l -0.21401,-1.008107 c -0.48986,-2.458616 -0.70091,-4.598827 -0.95389,-7.418145 l -0.0186,-2.464826 -1.4883,1.603628 0.11251,3.307361 c 0.14956,2.538917 0.56743,4.957025 1.40218,7.404948 0.63717,2.038956 1.3967,3.198905 1.3967,3.198905 1.18217,1.479565 1.65058,2.031391 3.30768,2.751086 1.12045,0.403384 2.17818,0.737699 3.3286,1.038999 1.21063,0.382304 1.73958,0.491 1.73958,0.491 z"
         id="path17-8" /></g></g></svg>
