<?xml version="1.0" encoding="UTF-8" standalone="no"?>
<!-- Created with Inkscape (http://www.inkscape.org/) -->

<svg
   width="12.815165mm"
   height="16.216078mm"
   viewBox="0 0 12.815165 16.216078"
   version="1.1"
   id="svg1"
   xml:space="preserve"
   xmlns="http://www.w3.org/2000/svg"
   xmlns:svg="http://www.w3.org/2000/svg"><defs
     id="defs1" /><g
     id="layer1"
     transform="translate(104.26416,77.973501)"><path
       style="fill:#ffffff;fill-opacity:1;stroke-width:0.264583"
       d="m -91.449,-77.973505 -0.175222,0.53364 c 0,0 -3.090294,3.52835 -3.695609,4.18942 -0.526412,0.59221 -2.628342,2.76374 -3.496491,3.41684 0,0 -0.533632,0.2469 -1.529218,0.60531 -0.52567,0.17523 -1.92745,0.41417 -1.92745,0.41417 0,0 -0.43806,0.62124 -0.70089,1.1947 -0.19115,0.56549 -0.46195,1.20266 -0.60531,1.96727 -0.17523,1.7602 -0.68497,3.89473 -0.68497,3.89473 l 0.14337,-2.26197 c 0.08,-1.67603 0.1604,-3.05903 1.05133,-4.41243 1.17275,-1.66237 2.65305,-3.02069 4.125705,-4.41243 1.277394,-1.26417 2.60881,-2.45244 4.014194,-3.56817 -0.255798,-0.21218 -0.470534,-0.50437 -0.446021,-0.82833 0.117312,-0.35386 0.334999,-0.50548 0.780537,-0.54159 z"
       id="path11-7" /></g></svg>
